<svg width="188" height="187" viewBox="0 0 188 187" fill="none" xmlns="http://www.w3.org/2000/svg">
<path fill-rule="evenodd" clip-rule="evenodd" d="M150.278 0.633838C146.102 2.97777 148.526 12.2131 154.021 14.8914C160.114 17.8633 164.209 12.8171 160.993 6.30433C158.509 1.27846 153.685 -1.27603 150.278 0.633838ZM156.038 18.4525C150.299 19.4592 149.064 28.4784 153.912 33.966C157.589 38.1275 162.895 38.8293 165.798 35.536C171.157 29.4536 164.067 17.045 156.038 18.4525ZM70.319 25.0207C60.9648 27.5826 57.8338 41.1345 65.8069 44.5516C71.6741 47.0673 78.9725 42.7285 80.7873 35.6469C82.6708 28.2937 77.5061 23.0517 70.319 25.0207ZM25.4575 32.6749C18.3983 35.9719 15.0504 50.4474 20.6785 53.3473C25.9191 56.0477 33.0487 46.8031 32.6576 37.8116C32.4203 32.3923 29.9066 30.597 25.4575 32.6749ZM205.767 37.3665C202.173 41.9213 207.649 57.4977 212.845 57.4977C216.801 57.4977 217.342 50.4899 213.926 43.4913C211.088 37.6749 207.595 35.0521 205.767 37.3665ZM157.691 40.9572C149.158 44.4426 150.927 59.2062 160.209 61.9897C172.132 65.5656 175.957 47.228 164.478 41.5168C162.724 40.645 159.173 40.3513 157.691 40.9572ZM4.5895 47.6971C-1.5873 54.0399 -1.50202 73.3991 4.68034 67.9908C8.83095 64.3595 11.3336 50.1907 8.39531 46.9546C7.49808 45.9664 5.98725 46.2619 4.5895 47.6971ZM59.6857 48.0942C48.3536 51.6221 48.335 69.7806 59.6616 70.9462C68.0648 71.8087 74.5438 60.7356 70.4655 52.4829C68.4411 48.3824 64.2442 46.6738 59.6857 48.0942ZM82.6151 54.8342C71.9856 57.5937 70.5507 72.7304 80.4536 77.6621C88.4712 81.6554 98.3556 73.508 96.7187 64.2542C95.4748 57.2132 89.311 53.0961 82.6151 54.8342ZM14.9521 55.8076C7.21446 59.9672 6.76584 78.9975 14.4053 79.101C15.8216 79.1213 17.0933 78.5284 18.2537 77.3056C22.6527 72.6713 23.5982 59.003 19.7108 56.2453C18.504 55.3883 16.1386 55.1704 14.9521 55.8076ZM214.851 59.9709C209.547 61.9805 209.885 79.173 215.283 81.9547C218.275 83.497 220.134 81.3378 220.931 75.3976C221.949 67.8098 218.338 58.6502 214.851 59.9709ZM107.384 60.6986C96.4555 65.2646 96.4833 79.5941 107.43 83.6743C116.063 86.8937 124.765 79.1231 122.829 69.9266C121.196 62.1707 114.063 57.9096 107.384 60.6986ZM135.604 63.7832C124.283 66.2343 122.143 81.8956 132.436 86.9658C138.544 89.9746 144.643 87.8505 147.681 81.6554C151.945 72.9613 144.45 61.8678 135.604 63.7832ZM29.1058 65.2184C23.9133 67.7784 21.4663 76.685 24.2822 82.7729C29.0631 93.1036 39.9448 89.4021 40.6641 77.2003C41.1702 68.6355 35.0471 62.2871 29.1058 65.2184ZM182.793 65.6469C174.294 67.8301 172.972 84.282 180.982 88.2015C185.999 90.6562 190.841 88.3474 193.106 82.4183C196.252 74.1767 189.888 63.8239 182.793 65.6469ZM158.735 66.3968C149.741 69.9026 149.34 84.7899 158.131 88.8516C162.027 90.6544 166.666 89.681 169.726 86.4227C177.916 77.6972 169.428 62.2298 158.735 66.3968ZM50.1425 73.9255C38.6676 77.6676 41.6874 97.9207 53.7277 97.9706C67.5699 98.0279 67.6125 74.1878 53.7703 73.6096C52.3577 73.5505 50.9007 73.678 50.1425 73.9255ZM226.27 79.5664C223.163 82.6621 222.212 101.521 225.162 101.521C227.173 101.521 228.662 95.1594 228.693 86.4357C228.719 79.9118 227.992 77.8523 226.27 79.5664ZM74.8348 81.4467C62.928 85.695 64.5797 103.222 77.1613 106.138C82.541 107.385 88.7085 103.022 90.3732 96.794C92.7906 87.7471 83.3381 78.4102 74.8348 81.4467ZM217.47 85.7338C212.765 88.9939 210.398 102.875 213.811 107.197C217.533 111.91 222.826 102.372 222.342 91.8236C222.075 86.0071 220.292 83.7777 217.47 85.7338ZM101.841 87.64C90.7866 92.0526 90.1656 106.129 100.803 111.088C114.154 117.315 125.321 100.348 114.471 90.3219C111.434 87.518 105.372 86.2306 101.841 87.64ZM203.046 90.115C194.826 93.835 193.047 112.407 200.81 113.443C206.06 114.145 211.075 106.057 210.589 97.6714C210.209 91.1438 207.274 88.2033 203.046 90.115ZM132.402 91.4117C122.466 92.7471 117.77 105.625 124.702 112.533C128.2 116.016 135.014 117.071 139.25 114.783C151.893 107.952 146.493 89.5184 132.402 91.4117ZM183.717 92.7028C176.672 94.6791 172.208 104.747 175.317 111.65C177.39 116.253 181.789 117.865 186.236 115.651C198 109.794 195.751 89.33 183.717 92.7028ZM158.902 93.5062C152.703 94.825 148.93 100.483 149.259 107.969C149.826 120.856 167.557 120.771 171.296 107.863C173.914 98.8258 167.702 91.6315 158.902 93.5062Z" fill="#74C4E4"/>
<path fill-rule="evenodd" clip-rule="evenodd" d="M5.47522 80.5733C2.03333 83.9836 3.37926 96.4852 7.59374 100.24C12.6278 104.727 16.675 97.9995 14.6862 88.4482C13.25 81.5567 8.54303 77.5317 5.47522 80.5733ZM42.4412 99.7279C35.5819 102.766 36.3676 115.022 43.7232 119.732C52.2142 125.171 61.0135 118.35 57.7802 108.838C55.4944 102.112 47.6181 97.4351 42.4412 99.7279ZM68.6003 107.906C57.2238 110.944 60.2841 127.061 72.7678 129.855C82.834 132.107 89.5054 121.673 83.2419 113.472C79.9279 109.132 73.3599 106.634 68.6003 107.906ZM219.216 109.775C214.629 110.969 208.009 125.865 210.556 129.261C211.797 130.913 213.27 130.68 215.351 128.503C221.173 122.414 224.04 108.519 219.216 109.775ZM97.5809 114.383C83.084 118.279 88.4771 137.607 103.73 136.417C109.123 135.998 114.888 129.92 114.401 125.171C113.606 117.424 105.531 112.246 97.5809 114.383ZM203.723 115.524C196.247 117.48 190.134 131.418 194.926 135.584C198.563 138.749 205.505 133.465 208.676 125.119C211.048 118.873 208.654 114.234 203.723 115.524ZM127.032 118.756C121.076 120.712 117.926 124.509 117.909 129.749C117.864 143.562 141.346 143.206 142.611 129.374C143.314 121.686 135.118 116.1 127.032 118.756ZM181.538 119.527C169.998 124.23 167.535 139.933 178.335 139.948C181.901 139.952 184.508 138.641 187.489 135.342C195.26 126.739 191.083 115.634 181.538 119.527ZM156.401 120.386C145.965 122.822 141.902 136.944 150.702 140.205C160.383 143.795 171.4 134.854 168.516 125.748C167.095 121.259 162.108 119.052 156.401 120.386ZM39.9336 124.046C33.6457 125.381 34.8544 135.089 41.9712 140.379C46.7854 143.957 52.9022 143.958 54.7876 140.38C58.5998 133.148 48.6407 122.198 39.9336 124.046ZM198.149 138.654C190.617 140.932 182.893 151.973 186.561 155.22C190.224 158.462 200.097 150.602 202.544 142.493C203.4 139.661 201.193 137.734 198.149 138.654ZM92.9886 138.978C82.1667 141.26 83.069 152.839 94.327 156.149C104.196 159.051 112.689 152.921 108.989 145.568C106.679 140.973 98.8404 137.745 92.9886 138.978ZM177.628 142.746C171.69 143.923 164.627 150.606 164.627 155.044C164.627 162.007 173.848 161.513 181.229 154.154C187.807 147.6 185.765 141.131 177.628 142.746ZM123.272 143.01C112.384 144.551 109.162 155.285 118.375 159.315C124.157 161.843 130.161 160.753 134.603 156.372C141.562 149.505 134.684 141.397 123.272 143.01ZM170.423 161.996C160.36 163.175 151.39 173.728 159.213 175.183C166.753 176.583 180.434 165.477 174.829 162.504C173.739 161.927 172.368 161.768 170.423 161.996ZM116.849 162.778C108.798 164.836 106.091 170.839 111.762 174.054C120.396 178.947 135.38 172.696 130.242 166.343C128.003 163.575 121.011 161.712 116.849 162.778ZM112.933 177.673C107.433 178.295 103.604 181.063 104.987 183.415C107.788 188.18 122.755 187.734 124.808 182.828C126.09 179.759 119.556 176.922 112.933 177.673Z" fill="#CCDC54"/>
</svg>
